<svg xmlns="http://www.w3.org/2000/svg" xmlns:xlink="http://www.w3.org/1999/xlink" width="1080" zoomAndPan="magnify" viewBox="0 0 810 809.999993" height="1080" preserveAspectRatio="xMidYMid meet" version="1.0"><defs><clipPath id="68eef3c32f"><path d="M 1 76 L 795.75 76 L 795.75 810 L 1 810 Z M 1 76 " clip-rule="nonzero"/></clipPath><clipPath id="7f25e2fb12"><path d="M 46 423 L 795.75 423 L 795.75 752 L 46 752 Z M 46 423 " clip-rule="nonzero"/></clipPath></defs><rect x="-81" width="972" fill="#ffffff" y="-80.999999" height="971.999992" fill-opacity="1"/><rect x="-81" width="972" fill="#ffffff" y="-80.999999" height="971.999992" fill-opacity="1"/><rect x="-81" width="972" fill="#ffffff" y="-80.999999" height="971.999992" fill-opacity="1"/><g clip-path="url(#68eef3c32f)"><path fill="#5773b8" d="M 795.519531 548.464844 C 795.335938 548.28125 794.96875 548.097656 794.785156 548.097656 L 556.710938 548.097656 L 574.546875 507.46875 L 575.097656 507.652344 C 575.097656 507.652344 575.28125 507.652344 575.464844 507.652344 C 575.832031 507.652344 576.199219 507.46875 576.382812 507.101562 L 584.472656 487.429688 C 584.65625 487.246094 584.472656 486.878906 584.472656 486.695312 C 584.289062 486.511719 584.105469 486.328125 583.921875 486.144531 L 555.976562 478.238281 L 558.917969 472.90625 C 560.390625 473.089844 563.882812 472.722656 569.214844 469.597656 C 575.464844 465.921875 600.097656 464.265625 623.628906 467.574219 C 634.84375 469.046875 640.910156 463.898438 644.21875 459.300781 C 649.550781 451.765625 650.472656 439.8125 646.425781 432.09375 C 642.933594 425.476562 627.492188 422.71875 613.519531 421.429688 C 626.019531 420.144531 637.601562 417.753906 640.726562 413.15625 C 641.644531 411.871094 641.832031 410.214844 641.277344 408.746094 C 638.152344 400.472656 593.847656 401.390625 583.554688 401.757812 C 583.554688 401.574219 583.738281 401.390625 583.738281 401.390625 C 584.472656 399.371094 584.105469 397.164062 583 394.957031 C 579.691406 388.890625 564.066406 393.117188 533.546875 408.011719 C 514.246094 417.570312 507.257812 451.210938 506.523438 454.707031 L 499.90625 462.609375 L 494.757812 461.140625 C 494.390625 460.957031 493.839844 461.140625 493.65625 461.507812 L 484.648438 477.871094 C 484.464844 478.054688 484.464844 478.421875 484.648438 478.605469 C 484.648438 478.789062 484.832031 478.972656 485.015625 478.972656 L 430.78125 568.320312 C 430.78125 568.320312 430.78125 568.320312 411.480469 454.707031 C 404.859375 415.546875 387.765625 389.808594 368.277344 372.710938 C 379.675781 365.726562 388.5 354.328125 391.808594 340.539062 L 391.625 339.988281 C 375.261719 301.933594 377.285156 258.546875 397.140625 222.328125 C 402.472656 212.402344 408.171875 202.105469 413.132812 192.179688 C 433.722656 152.285156 380.226562 99.707031 380.226562 99.707031 C 380.226562 99.707031 365.152344 89.042969 281.6875 77.828125 C 262.015625 75.257812 245.105469 76.359375 230.765625 79.851562 C 190.6875 89.226562 163.480469 126.730469 165.871094 167.914062 L 151.53125 197.328125 C 141.417969 217.734375 139.949219 241.449219 146.933594 263.140625 L 155.207031 288.144531 L 105.753906 351.386719 C 77.441406 364.070312 57.773438 383.558594 36.8125 424.554688 C 6.296875 483.386719 2.988281 661.894531 1.515625 702.15625 C 0.046875 742.601562 43.800781 750.691406 43.800781 750.691406 L 43.800781 810.257812 L 376.550781 775.511719 L 376.550781 744.625 L 702.679688 744.625 C 703.050781 744.625 703.417969 744.441406 703.601562 744.074219 L 795.519531 549.382812 C 795.703125 549.199219 795.703125 548.832031 795.519531 548.464844 Z M 339.230469 354.144531 C 339.414062 354.328125 339.597656 354.328125 339.78125 354.511719 C 339.597656 354.328125 339.414062 354.144531 339.230469 354.144531 Z M 318.640625 346.238281 C 318.824219 346.238281 319.007812 346.421875 319.191406 346.421875 C 319.007812 346.238281 318.824219 346.238281 318.640625 346.238281 Z M 325.441406 348.445312 C 325.441406 348.445312 325.625 348.445312 325.625 348.445312 C 325.625 348.445312 325.625 348.445312 325.441406 348.445312 Z M 328.75 349.546875 C 328.933594 349.546875 329.117188 349.730469 329.304688 349.730469 C 329.117188 349.730469 328.933594 349.730469 328.75 349.546875 Z M 332.246094 351.019531 C 332.246094 351.019531 332.429688 351.019531 332.429688 351.019531 C 332.429688 351.019531 332.246094 351.019531 332.246094 351.019531 Z M 335.921875 352.671875 Z M 343.089844 356.167969 C 342.90625 356.167969 342.722656 355.984375 342.722656 355.984375 C 342.90625 355.984375 343.089844 355.984375 343.089844 356.167969 Z M 316.066406 345.503906 C 315.882812 345.503906 315.882812 345.503906 315.699219 345.320312 C 315.699219 345.320312 315.882812 345.320312 316.066406 345.503906 Z M 309.816406 343.847656 C 309.632812 343.847656 309.449219 343.847656 309.449219 343.664062 C 309.632812 343.847656 309.816406 343.847656 309.816406 343.847656 Z M 307.058594 343.296875 C 306.875 343.296875 306.875 343.296875 306.691406 343.296875 C 306.875 343.113281 307.058594 343.113281 307.058594 343.296875 Z M 301.726562 342.195312 C 301.542969 342.195312 301.542969 342.195312 301.359375 342.195312 C 301.542969 342.195312 301.542969 342.195312 301.726562 342.195312 Z M 299.335938 341.828125 C 299.152344 341.828125 299.152344 341.828125 298.96875 341.828125 C 299.152344 341.644531 299.335938 341.828125 299.335938 341.828125 Z M 294.925781 341.089844 C 294.925781 341.089844 294.742188 341.089844 294.742188 341.089844 C 294.742188 341.089844 294.742188 341.089844 294.925781 341.089844 Z M 293.085938 340.90625 C 292.902344 340.90625 292.902344 340.90625 292.71875 340.90625 C 292.902344 340.90625 292.902344 340.90625 293.085938 340.90625 Z M 291.246094 340.722656 Z M 289.59375 340.539062 Z M 288.492188 340.539062 C 288.304688 340.539062 288.304688 340.539062 288.121094 340.539062 C 288.304688 340.539062 288.304688 340.539062 288.492188 340.539062 Z M 287.386719 340.355469 C 287.386719 340.355469 287.203125 340.355469 287.203125 340.355469 C 287.203125 340.355469 287.203125 340.355469 287.386719 340.355469 Z M 286.285156 340.355469 Z M 285.734375 340.355469 C 285.734375 340.355469 285.550781 340.355469 285.734375 340.355469 C 285.550781 340.355469 285.734375 340.355469 285.734375 340.355469 Z M 285.363281 340.355469 C 285.363281 340.355469 285.179688 340.355469 285.363281 340.355469 C 285.179688 340.355469 285.363281 340.355469 285.363281 340.355469 Z M 284.261719 341.273438 C 284.445312 341.828125 284.628906 342.011719 284.8125 342.378906 C 284.8125 342.011719 284.628906 341.644531 284.261719 341.273438 Z M 283.34375 339.253906 C 283.527344 339.621094 283.710938 339.804688 283.710938 340.171875 C 283.710938 339.988281 283.527344 339.621094 283.34375 339.253906 Z M 283.894531 340.539062 C 284.078125 340.722656 284.078125 340.90625 284.261719 341.089844 C 284.078125 340.90625 284.078125 340.722656 283.894531 340.539062 Z M 353.570312 362.050781 C 353.753906 362.234375 353.9375 362.234375 354.121094 362.417969 C 353.9375 362.234375 353.753906 362.234375 353.570312 362.050781 Z M 350.078125 359.84375 C 350.261719 360.027344 350.445312 360.027344 350.628906 360.210938 C 350.445312 360.210938 350.261719 360.027344 350.078125 359.84375 Z M 217.894531 352.488281 L 227.457031 366.460938 L 274.703125 436.503906 Z M 136.824219 340.539062 C 137.375 340.355469 137.925781 340.171875 138.660156 339.988281 C 138.109375 340.171875 137.558594 340.355469 136.824219 340.539062 Z M 142.707031 338.886719 C 143.257812 338.703125 143.808594 338.519531 144.359375 338.519531 C 143.808594 338.703125 143.257812 338.703125 142.707031 338.886719 Z M 364.230469 369.585938 C 364.417969 369.769531 364.601562 369.953125 364.96875 370.136719 C 364.601562 369.953125 364.417969 369.769531 364.230469 369.585938 Z M 360.738281 367.011719 C 360.921875 367.195312 361.105469 367.378906 361.289062 367.378906 C 361.289062 367.378906 361.105469 367.195312 360.738281 367.011719 Z M 111.269531 348.996094 C 110.902344 349.179688 110.535156 349.179688 110.351562 349.363281 C 110.535156 349.179688 110.902344 348.996094 111.269531 348.996094 Z M 132.960938 341.644531 C 132.410156 341.828125 132.042969 342.011719 131.492188 342.011719 C 131.859375 341.828125 132.410156 341.644531 132.960938 341.644531 Z M 121.011719 345.320312 C 120.828125 345.320312 120.460938 345.503906 120.277344 345.503906 C 120.460938 345.503906 120.828125 345.320312 121.011719 345.320312 Z M 116.234375 346.972656 C 115.863281 347.15625 115.496094 347.34375 115.128906 347.34375 C 115.3125 347.34375 115.679688 347.15625 116.234375 346.972656 Z M 116.234375 346.972656 " fill-opacity="1" fill-rule="nonzero"/></g><path fill="#5773b8" d="M 494.390625 462.058594 L 485.382812 478.421875 L 430.597656 568.503906 C 430.597656 568.503906 430.597656 568.503906 411.296875 454.890625 C 391.992188 341.273438 285.179688 340.355469 285.179688 340.355469 L 274.703125 436.503906 L 217.894531 352.488281 C 217.894531 352.488281 205.761719 323.441406 150.058594 337.046875 C 94.539062 350.652344 67.148438 365.175781 36.628906 424.371094 C 6.296875 483.386719 2.988281 661.894531 1.515625 702.15625 C 0.046875 742.601562 43.800781 750.691406 43.800781 750.691406 L 43.800781 810.257812 L 376.550781 775.511719 L 376.550781 736.351562 C 376.367188 736.167969 375.996094 736.167969 375.8125 735.984375 C 357.796875 728.261719 339.230469 701.238281 330.589844 701.054688 C 321.949219 700.871094 291.433594 700.503906 283.160156 686.898438 L 276.539062 687.816406 L 271.394531 641.671875 C 271.394531 641.671875 321.582031 630.828125 340.882812 641.671875 C 360.1875 652.519531 415.523438 687.449219 416.074219 696.824219 C 416.625 706.203125 408.539062 706.753906 401.734375 700.320312 C 396.21875 695.171875 380.410156 684.324219 374.894531 680.648438 C 387.949219 691.863281 414.789062 716.3125 407.617188 721.644531 C 403.390625 724.769531 400.265625 729.367188 396.589844 733.042969 L 427.472656 733.042969 L 518.839844 549.015625 L 556.34375 549.015625 L 583.554688 487.0625 Z M 494.390625 462.058594 " fill-opacity="1" fill-rule="nonzero"/><path fill="#e28a5c" d="M 330.589844 701.054688 C 321.949219 700.871094 291.433594 700.503906 283.160156 686.898438 L 276.539062 687.816406 L 271.394531 641.671875 C 271.394531 641.671875 321.582031 630.828125 340.882812 641.671875 C 360.1875 652.519531 415.523438 687.449219 416.074219 696.824219 C 416.625 706.203125 408.539062 706.753906 401.734375 700.320312 C 396.21875 695.171875 380.410156 684.324219 374.894531 680.648438 C 387.949219 691.863281 414.789062 716.3125 407.617188 721.644531 C 403.390625 724.769531 400.265625 729.367188 396.589844 733.042969 L 370.300781 733.042969 C 354.121094 722.929688 338.3125 701.238281 330.589844 701.054688 Z M 645.507812 432.644531 C 641.832031 425.660156 622.527344 423.085938 607.636719 422.164062 C 610.945312 421.246094 614.4375 420.511719 617.5625 420.328125 C 628.410156 419.222656 640.542969 415.546875 640.359375 411.136719 C 640.359375 406.722656 631.351562 405.070312 631.351562 405.070312 L 605.980469 402.679688 L 581.898438 402.679688 C 583.183594 400.472656 583.371094 398.082031 581.898438 395.507812 C 578.222656 388.707031 553.402344 399.183594 533.734375 408.929688 C 514.0625 418.671875 507.074219 455.257812 507.074219 455.257812 L 499.90625 463.714844 L 554.691406 478.421875 L 558.183594 472.171875 C 558.183594 472.171875 561.675781 473.089844 568.476562 469.046875 C 575.28125 465 601.019531 463.714844 623.628906 466.839844 C 646.242188 469.964844 651.757812 444.59375 645.507812 432.644531 Z M 285.179688 298.808594 C 285.179688 298.808594 309.816406 306.527344 325.074219 310.757812 C 340.332031 314.984375 349.339844 296.96875 349.339844 296.96875 L 358.347656 277.480469 L 365.886719 251.746094 C 366.253906 250.273438 366.621094 248.804688 366.988281 247.148438 L 371.585938 223.984375 L 378.753906 167.359375 C 366.988281 162.582031 365.152344 128.019531 365.152344 128.019531 C 357.796875 127.46875 312.941406 151.734375 273.597656 176.367188 C 234.257812 200.820312 229.84375 193.097656 229.84375 193.097656 C 236.097656 172.507812 202.636719 155.777344 197.304688 191.445312 C 191.972656 227.109375 221.019531 222.511719 221.019531 222.511719 C 221.019531 222.511719 242.164062 234.09375 244.738281 272.886719 C 247.308594 311.675781 241.609375 304.875 225.25 345.136719 C 223.59375 349.179688 222.308594 353.042969 221.203125 356.71875 L 274.886719 436.320312 L 285.363281 342.378906 C 285.363281 342.378906 284.628906 341.273438 283.710938 339.070312 C 274.335938 319.214844 285.179688 298.808594 285.179688 298.808594 Z M 285.179688 298.808594 " fill-opacity="1" fill-rule="nonzero"/><path fill="#ffffff" d="M 314.226562 733.042969 L 427.472656 733.042969 L 518.839844 549.015625 L 794.785156 549.015625 L 702.863281 743.707031 L 314.226562 743.707031 Z M 314.226562 733.042969 " fill-opacity="1" fill-rule="nonzero"/><path fill="#ffffff" d="M 314.226562 733.042969 L 427.472656 733.042969 L 518.839844 549.015625 L 794.785156 549.015625 L 702.863281 743.707031 L 314.226562 743.707031 Z M 314.226562 733.042969 " fill-opacity="1" fill-rule="nonzero"/><path fill="#2e2e2e" d="M 220.46875 595.160156 C 219.917969 595.34375 219.734375 595.894531 219.917969 596.265625 C 220.101562 596.632812 220.46875 596.816406 220.835938 596.816406 C 221.019531 596.816406 221.019531 596.816406 221.203125 596.816406 C 221.941406 596.632812 292.167969 573.101562 317.351562 576.777344 C 317.90625 576.777344 318.273438 576.59375 318.457031 576.042969 C 318.640625 575.488281 318.273438 575.121094 317.722656 574.9375 C 291.800781 571.261719 223.410156 594.058594 220.46875 595.160156 Z M 220.46875 595.160156 " fill-opacity="1" fill-rule="nonzero"/><path fill="#2e2e2e" d="M 485.015625 479.15625 L 575.097656 507.652344 C 575.097656 507.652344 575.28125 507.652344 575.464844 507.652344 C 575.832031 507.652344 576.199219 507.46875 576.382812 507.101562 L 584.472656 487.429688 C 584.65625 487.246094 584.472656 486.878906 584.472656 486.695312 C 584.289062 486.511719 584.105469 486.328125 583.921875 486.144531 L 555.976562 478.238281 L 558.917969 472.90625 C 560.390625 473.089844 563.882812 472.722656 569.214844 469.597656 C 575.464844 465.921875 600.097656 464.265625 623.628906 467.574219 C 634.84375 469.046875 640.910156 463.898438 644.21875 459.300781 C 649.550781 451.765625 650.472656 439.816406 646.425781 432.09375 C 642.933594 425.476562 627.492188 422.71875 613.519531 421.429688 C 626.019531 420.144531 637.601562 417.753906 640.726562 413.15625 C 641.644531 411.871094 641.832031 410.214844 641.277344 408.746094 C 638.152344 400.472656 593.847656 401.390625 583.554688 401.757812 C 583.554688 401.574219 583.738281 401.390625 583.738281 401.390625 C 584.472656 399.371094 584.105469 397.164062 583 394.957031 C 579.691406 388.890625 564.066406 393.117188 533.546875 408.011719 C 514.246094 417.570312 507.257812 451.210938 506.523438 454.707031 L 499.90625 462.609375 L 494.757812 461.140625 C 494.390625 460.957031 493.839844 461.140625 493.65625 461.507812 L 484.648438 477.871094 C 484.464844 478.054688 484.464844 478.421875 484.648438 478.605469 C 484.832031 478.789062 484.832031 479.15625 485.015625 479.15625 Z M 507.996094 455.808594 C 508.179688 455.625 508.179688 455.625 508.179688 455.441406 C 508.179688 455.074219 515.164062 419.222656 534.285156 409.847656 C 571.601562 391.464844 579.691406 393.300781 581.347656 396.058594 C 582.265625 397.898438 582.449219 399.371094 582.082031 401.023438 C 581.898438 401.574219 581.714844 402.125 581.347656 402.496094 C 579.140625 405.988281 573.625 408.929688 568.660156 411.320312 C 566.273438 412.421875 564.617188 412.972656 563.148438 413.523438 C 558.367188 415.179688 557.449219 415.914062 552.300781 426.394531 C 545.683594 439.816406 537.960938 442.757812 537.777344 442.757812 C 537.226562 442.941406 537.042969 443.492188 537.226562 443.859375 C 537.410156 444.410156 537.960938 444.59375 538.328125 444.410156 C 538.695312 444.226562 546.96875 441.285156 553.953125 427.128906 C 558.917969 416.835938 559.46875 416.652344 563.699219 415.179688 C 565.167969 414.628906 567.007812 414.078125 569.398438 412.972656 C 576.382812 409.664062 580.429688 406.90625 582.632812 403.964844 C 603.777344 403.230469 637.417969 404.148438 639.625 409.664062 C 639.992188 410.765625 639.992188 411.503906 639.257812 412.421875 C 636.316406 416.835938 621.976562 419.960938 599.914062 420.878906 C 599.730469 420.878906 599.730469 420.878906 599.546875 420.878906 C 593.847656 420.695312 589.804688 420.695312 589.253906 420.878906 C 588.699219 420.878906 588.332031 421.246094 588.332031 421.796875 C 588.332031 422.347656 588.699219 422.71875 589.253906 422.71875 C 589.804688 422.71875 638.890625 421.980469 644.773438 433.195312 C 648.082031 439.445312 648.082031 450.660156 642.566406 458.566406 C 639.625 462.792969 633.925781 467.390625 623.8125 466.105469 C 601.570312 462.980469 575.464844 464.082031 568.109375 468.492188 C 561.675781 472.171875 558.550781 471.621094 558.550781 471.621094 C 558.183594 471.433594 557.632812 471.621094 557.449219 471.988281 L 554.324219 477.6875 L 501.746094 463.53125 Z M 494.757812 463.164062 L 582.265625 487.796875 L 574.914062 505.8125 L 486.667969 477.871094 Z M 494.757812 463.164062 " fill-opacity="1" fill-rule="nonzero"/><g clip-path="url(#7f25e2fb12)"><path fill="#2e2e2e" d="M 795.519531 548.464844 C 795.335938 548.28125 794.96875 548.097656 794.785156 548.097656 L 518.839844 548.097656 C 518.472656 548.097656 518.105469 548.28125 518.105469 548.648438 L 426.921875 732.121094 L 398.609375 732.121094 C 399.53125 731.019531 400.449219 730.101562 401.367188 728.996094 C 403.390625 726.609375 405.597656 724.21875 407.984375 722.378906 C 408.90625 721.644531 409.457031 720.539062 409.640625 719.253906 C 409.824219 713.1875 398.976562 701.238281 386.660156 689.839844 C 392.175781 693.882812 398.058594 698.113281 401 700.871094 C 405.230469 704.730469 409.824219 706.386719 413.132812 704.730469 C 414.605469 703.996094 416.996094 701.972656 416.808594 696.640625 C 416.441406 688.921875 384.269531 667.042969 360.921875 652.519531 C 360.921875 652.519531 360.921875 652.519531 360.921875 652.335938 C 360.921875 651.785156 366.621094 596.632812 379.308594 557.289062 C 391.625 519.234375 363.863281 474.558594 360.921875 469.964844 L 366.804688 451.210938 C 366.988281 450.660156 366.621094 450.292969 366.253906 450.109375 C 365.703125 449.925781 365.335938 450.292969 365.152344 450.660156 L 359.085938 469.964844 C 359.085938 470.148438 359.085938 470.515625 359.269531 470.699219 C 359.636719 471.25 390.152344 517.761719 377.652344 556.738281 C 365.703125 593.691406 360.003906 644.613281 359.269531 651.417969 C 351.730469 646.636719 345.113281 642.777344 341.253906 640.753906 C 323.234375 630.640625 279.480469 638.914062 272.128906 640.386719 L 271.394531 633.398438 C 271.394531 633.214844 271.210938 632.847656 271.027344 632.847656 C 270.839844 632.664062 270.65625 632.664062 270.289062 632.664062 L 136.640625 649.945312 C 136.824219 647.921875 141.785156 594.976562 159.066406 519.601562 C 176.898438 442.386719 151.347656 424.003906 150.242188 423.269531 C 149.875 422.902344 149.324219 423.085938 148.957031 423.453125 C 148.589844 423.820312 148.773438 424.371094 149.140625 424.738281 C 149.324219 424.921875 174.695312 443.308594 157.230469 519.050781 C 139.582031 595.710938 134.800781 649.210938 134.617188 649.578125 C 134.617188 649.761719 134.617188 649.761719 134.617188 649.945312 L 92.699219 655.460938 C 92.148438 655.460938 91.78125 656.011719 91.964844 656.5625 C 91.964844 657.117188 92.515625 657.484375 93.070312 657.300781 L 252.089844 636.710938 L 260.730469 706.015625 C 214.953125 721.460938 89.207031 761.171875 47.292969 746.09375 C 46.742188 745.910156 46.375 746.09375 46.191406 746.644531 C 46.003906 747.199219 46.191406 747.566406 46.742188 747.75 C 53.542969 750.140625 62.367188 751.242188 72.480469 751.242188 C 140.683594 751.242188 271.945312 703.996094 278.195312 701.789062 C 278.5625 701.605469 278.929688 701.238281 278.746094 700.871094 L 277.277344 688.367188 L 282.421875 687.632812 C 291.0625 700.6875 318.640625 701.421875 329.304688 701.605469 L 330.40625 701.605469 C 334.265625 701.789062 340.882812 708.222656 347.871094 715.027344 C 353.753906 720.726562 360.371094 727.160156 367.171875 731.753906 L 314.042969 731.753906 C 313.492188 731.753906 313.125 732.121094 313.125 732.675781 L 313.125 743.335938 C 313.125 743.890625 313.492188 744.257812 314.042969 744.257812 L 702.679688 744.257812 C 703.050781 744.257812 703.417969 744.074219 703.601562 743.703125 L 795.519531 549.015625 C 795.703125 549.199219 795.703125 548.832031 795.519531 548.464844 Z M 262.570312 705.648438 L 253.929688 636.710938 L 269.738281 634.6875 L 270.472656 641.671875 L 275.621094 687.816406 L 277.09375 700.503906 C 275.253906 701.238281 270.105469 703.074219 262.570312 705.648438 Z M 349.339844 713.921875 C 341.4375 706.203125 335.1875 700.132812 330.589844 699.949219 L 329.488281 699.949219 C 320.109375 699.765625 291.617188 699.03125 283.894531 686.347656 C 283.710938 685.980469 283.34375 685.796875 282.976562 685.980469 L 277.277344 686.714844 L 272.3125 642.222656 C 278.929688 640.9375 323.050781 632.480469 340.332031 642.222656 C 361.84375 654.175781 414.605469 688.183594 414.972656 696.640625 C 415.15625 699.949219 414.238281 702.15625 412.398438 703.074219 C 409.824219 704.179688 405.78125 702.890625 402.289062 699.582031 C 396.773438 694.433594 381.695312 684.140625 375.445312 679.910156 C 375.078125 679.726562 374.527344 679.726562 374.160156 680.097656 C 373.792969 680.464844 373.976562 681.015625 374.34375 681.382812 C 395.851562 699.949219 407.984375 713.738281 407.800781 719.253906 C 407.800781 719.988281 407.433594 720.542969 406.882812 720.910156 C 404.308594 722.746094 402.101562 725.320312 400.082031 727.710938 C 398.792969 729.179688 397.507812 730.652344 396.035156 732.125 L 370.484375 732.125 C 363.128906 727.527344 355.777344 720.355469 349.339844 713.921875 Z M 702.128906 742.785156 L 315.148438 742.785156 L 315.148438 733.960938 L 427.472656 733.960938 C 427.839844 733.960938 428.207031 733.777344 428.207031 733.410156 L 519.394531 549.9375 L 793.3125 549.9375 Z M 702.128906 742.785156 " fill-opacity="1" fill-rule="nonzero"/></g><path fill="#2e2e2e" d="M 435.929688 732.308594 C 435.929688 732.859375 436.296875 733.226562 436.847656 733.226562 L 695.878906 733.226562 C 696.429688 733.226562 696.796875 732.859375 696.796875 732.308594 C 696.796875 731.753906 696.429688 731.386719 695.878906 731.386719 L 436.847656 731.386719 C 436.296875 731.386719 435.929688 731.9375 435.929688 732.308594 Z M 435.929688 732.308594 " fill-opacity="1" fill-rule="nonzero"/><path fill="#2e2e2e" d="M 348.238281 241.816406 C 338.128906 239.058594 333.53125 237.773438 333.53125 237.589844 C 332.980469 237.40625 332.613281 237.773438 332.429688 238.140625 C 332.246094 238.691406 332.613281 239.058594 332.980469 239.242188 C 332.980469 239.242188 337.574219 240.53125 347.6875 243.472656 C 348.421875 243.65625 348.972656 243.839844 349.710938 243.839844 C 350.996094 243.839844 351.914062 243.472656 352.835938 242.550781 C 356.695312 238.507812 353.019531 225.453125 348.972656 212.21875 C 345.480469 200.820312 348.972656 193.648438 348.972656 193.464844 C 349.15625 193.097656 348.972656 192.546875 348.605469 192.179688 C 348.238281 191.8125 347.6875 192.179688 347.320312 192.546875 C 347.136719 192.914062 343.457031 200.453125 347.320312 212.585938 C 350.078125 221.226562 355.222656 237.40625 351.730469 241.082031 C 350.8125 242 349.707031 242.183594 348.238281 241.816406 Z M 348.238281 241.816406 " fill-opacity="1" fill-rule="nonzero"/><path fill="#2e2e2e" d="M 619.21875 663.183594 C 620.871094 663.917969 622.710938 664.285156 624.550781 664.285156 C 627.308594 664.285156 630.25 663.367188 633.191406 661.710938 C 637.96875 658.953125 641.832031 654.359375 644.402344 648.660156 C 649.550781 636.894531 646.792969 624.023438 638.152344 620.347656 C 633.925781 618.507812 628.960938 619.058594 624.183594 621.816406 C 619.402344 624.574219 615.542969 629.171875 612.96875 634.871094 C 610.394531 640.570312 609.660156 646.636719 610.761719 651.96875 C 611.863281 657.117188 614.988281 661.160156 619.21875 663.183594 Z M 614.621094 635.421875 C 617.011719 630.089844 620.6875 625.679688 625.101562 623.289062 C 627.675781 621.816406 630.433594 621.082031 632.820312 621.082031 C 634.476562 621.082031 635.949219 621.449219 637.417969 622 C 645.140625 625.496094 647.53125 637.078125 642.75 647.921875 C 640.359375 653.253906 636.683594 657.667969 632.269531 660.058594 C 628.042969 662.632812 623.628906 663 619.953125 661.34375 C 616.277344 659.6875 613.703125 656.195312 612.601562 651.234375 C 611.496094 646.453125 612.230469 640.753906 614.621094 635.421875 Z M 614.621094 635.421875 " fill-opacity="1" fill-rule="nonzero"/><path fill="#2e2e2e" d="M 312.757812 249.90625 C 312.574219 249.355469 312.023438 249.171875 311.652344 249.355469 C 311.101562 249.539062 310.917969 250.089844 311.101562 250.457031 C 311.285156 251.007812 315.332031 264.246094 340.148438 264.613281 C 340.699219 264.613281 341.070312 264.246094 341.070312 263.695312 C 341.070312 263.140625 340.699219 262.773438 340.148438 262.773438 C 316.800781 262.40625 312.941406 250.089844 312.757812 249.90625 Z M 312.757812 249.90625 " fill-opacity="1" fill-rule="nonzero"/><path fill="#2e2e2e" d="M 320.847656 208.726562 C 320.847656 209.164062 320.761719 209.585938 320.59375 209.992188 C 320.425781 210.398438 320.1875 210.753906 319.875 211.066406 C 319.566406 211.375 319.207031 211.613281 318.804688 211.78125 C 318.398438 211.949219 317.976562 212.035156 317.535156 212.035156 C 317.097656 212.035156 316.675781 211.949219 316.269531 211.78125 C 315.863281 211.613281 315.507812 211.375 315.195312 211.066406 C 314.886719 210.753906 314.648438 210.398438 314.480469 209.992188 C 314.3125 209.585938 314.226562 209.164062 314.226562 208.726562 C 314.226562 208.285156 314.3125 207.863281 314.480469 207.457031 C 314.648438 207.054688 314.886719 206.695312 315.195312 206.386719 C 315.507812 206.074219 315.863281 205.835938 316.269531 205.667969 C 316.675781 205.5 317.097656 205.417969 317.535156 205.417969 C 317.976562 205.417969 318.398438 205.5 318.804688 205.667969 C 319.207031 205.835938 319.566406 206.074219 319.875 206.386719 C 320.1875 206.695312 320.425781 207.054688 320.59375 207.457031 C 320.761719 207.863281 320.847656 208.285156 320.847656 208.726562 Z M 320.847656 208.726562 " fill-opacity="1" fill-rule="nonzero"/><path fill="#2e2e2e" d="M 364.96875 212.21875 C 364.96875 212.65625 364.882812 213.078125 364.714844 213.484375 C 364.546875 213.890625 364.308594 214.246094 364 214.558594 C 363.6875 214.867188 363.332031 215.109375 362.925781 215.277344 C 362.519531 215.445312 362.097656 215.527344 361.660156 215.527344 C 361.21875 215.527344 360.796875 215.445312 360.390625 215.277344 C 359.988281 215.109375 359.628906 214.867188 359.320312 214.558594 C 359.007812 214.246094 358.769531 213.890625 358.601562 213.484375 C 358.433594 213.078125 358.347656 212.65625 358.347656 212.21875 C 358.347656 211.78125 358.433594 211.355469 358.601562 210.953125 C 358.769531 210.546875 359.007812 210.1875 359.320312 209.878906 C 359.628906 209.566406 359.988281 209.328125 360.390625 209.160156 C 360.796875 208.992188 361.21875 208.910156 361.660156 208.910156 C 362.097656 208.910156 362.519531 208.992188 362.925781 209.160156 C 363.332031 209.328125 363.6875 209.566406 364 209.878906 C 364.308594 210.1875 364.546875 210.546875 364.714844 210.953125 C 364.882812 211.355469 364.96875 211.78125 364.96875 212.21875 Z M 364.96875 212.21875 " fill-opacity="1" fill-rule="nonzero"/><path fill="#2e2e2e" d="M 373.054688 184.824219 C 373.242188 184.824219 373.609375 184.640625 373.792969 184.457031 C 374.160156 184.089844 374.160156 183.539062 373.792969 183.171875 C 365.335938 175.082031 353.386719 180.78125 353.203125 180.78125 C 352.835938 180.964844 352.652344 181.515625 352.835938 182.066406 C 353.019531 182.4375 353.570312 182.621094 354.121094 182.4375 C 354.304688 182.4375 364.96875 177.105469 372.503906 184.457031 C 372.503906 184.640625 372.6875 184.824219 373.054688 184.824219 Z M 373.054688 184.824219 " fill-opacity="1" fill-rule="nonzero"/><path fill="#2e2e2e" d="M 330.589844 178.941406 C 330.039062 178.574219 316.25 171.222656 300.257812 178.941406 C 299.886719 179.125 299.519531 179.679688 299.886719 180.230469 C 300.074219 180.597656 300.441406 180.78125 300.808594 180.78125 C 300.992188 180.78125 300.992188 180.78125 301.175781 180.78125 C 316.25 173.613281 329.671875 180.597656 329.671875 180.78125 C 330.039062 180.964844 330.589844 180.78125 330.957031 180.414062 C 331.140625 179.863281 330.957031 179.125 330.589844 178.941406 Z M 330.589844 178.941406 " fill-opacity="1" fill-rule="nonzero"/><path fill="#2e2e2e" d="M 105.753906 351.203125 C 118.4375 345.503906 132.960938 341.273438 150.242188 337.046875 C 205.761719 323.441406 218.078125 352.488281 218.078125 352.488281 L 227.640625 366.460938 L 221.203125 356.902344 C 222.308594 353.226562 223.59375 349.363281 225.25 345.320312 C 241.609375 304.875 247.125 311.859375 244.738281 273.070312 C 242.347656 234.277344 221.019531 222.695312 221.019531 222.695312 C 221.019531 222.695312 192.160156 227.476562 197.304688 191.628906 C 202.636719 155.960938 236.097656 172.507812 229.84375 193.28125 C 229.84375 193.28125 234.257812 201.003906 273.597656 176.554688 C 312.941406 152.101562 357.980469 127.652344 365.152344 128.203125 C 365.152344 128.203125 366.804688 162.949219 378.753906 167.542969 L 371.585938 224.167969 L 366.804688 247.332031 C 366.4375 248.804688 366.070312 250.273438 365.703125 251.929688 L 358.164062 277.664062 L 349.15625 297.152344 C 349.15625 297.152344 339.964844 315.167969 324.890625 310.941406 C 309.816406 306.714844 284.996094 298.992188 284.996094 298.992188 C 284.996094 298.992188 274.152344 319.398438 283.34375 339.621094 C 283.894531 341.089844 284.628906 342.195312 284.8125 342.5625 L 284.996094 340.539062 C 284.996094 340.539062 330.957031 340.90625 367.910156 373.078125 C 379.308594 366.09375 388.132812 354.695312 391.441406 340.90625 L 391.257812 340.355469 C 374.894531 302.300781 376.917969 258.914062 396.773438 222.695312 C 402.101562 212.769531 407.800781 202.472656 412.765625 192.546875 C 433.722656 152.285156 380.226562 99.707031 380.226562 99.707031 C 380.226562 99.707031 365.152344 89.042969 281.6875 77.828125 C 262.015625 75.257812 245.105469 76.359375 230.765625 79.851562 C 190.6875 89.226562 163.480469 126.730469 165.871094 167.914062 L 151.53125 197.328125 C 141.417969 217.734375 139.949219 241.449219 146.933594 263.140625 L 155.207031 288.144531 Z M 105.753906 351.203125 " fill-opacity="1" fill-rule="nonzero"/></svg>