<svg xmlns="http://www.w3.org/2000/svg" xmlns:xlink="http://www.w3.org/1999/xlink" width="1080" zoomAndPan="magnify" viewBox="0 0 810 809.999993" height="1080" preserveAspectRatio="xMidYMid meet" version="1.0"><defs><g/></defs><rect x="-81" width="972" fill="#ffffff" y="-80.999999" height="971.999992" fill-opacity="1"/><rect x="-81" width="972" fill="#ffffff" y="-80.999999" height="971.999992" fill-opacity="1"/><rect x="-81" width="972" fill="#ffffff" y="-80.999999" height="971.999992" fill-opacity="1"/><path fill="#eb3752" d="M 444.855469 21.980469 L 463.773438 39.898438 C 479.089844 54.414062 500.921875 59.792969 521.230469 54.058594 L 546.3125 46.976562 C 576.933594 38.332031 608.972656 55.136719 619.246094 85.242188 L 627.667969 109.898438 C 634.488281 129.863281 651.316406 144.769531 671.964844 149.132812 L 697.460938 154.507812 C 728.59375 161.082031 749.152344 190.847656 744.257812 222.277344 L 740.246094 248.019531 C 737.003906 268.867188 744.976562 289.878906 761.234375 303.332031 L 781.308594 319.941406 C 805.820312 340.226562 810.183594 376.128906 791.238281 401.6875 L 775.726562 422.617188 C 763.15625 439.566406 760.445312 461.878906 768.589844 481.34375 L 778.644531 505.378906 C 790.917969 534.722656 778.089844 568.542969 749.429688 582.371094 L 725.960938 593.695312 C 706.957031 602.867188 694.183594 621.363281 692.34375 642.386719 L 690.078125 668.335938 C 687.300781 700.019531 660.21875 724.007812 628.414062 722.933594 L 602.367188 722.0625 C 581.28125 721.351562 561.371094 731.796875 549.96875 749.554688 L 535.894531 771.484375 C 518.707031 798.25 483.578125 806.90625 455.914062 791.1875 L 433.257812 778.308594 C 414.910156 767.886719 392.429688 767.886719 374.082031 778.308594 L 351.421875 791.1875 C 323.761719 806.90625 288.632812 798.25 271.445312 771.484375 L 257.367188 749.554688 C 245.96875 731.796875 226.0625 721.351562 204.96875 722.0625 L 178.921875 722.933594 C 147.121094 724.007812 120.035156 700.019531 117.265625 668.335938 L 114.992188 642.386719 C 113.15625 621.363281 100.382812 602.867188 81.378906 593.695312 L 57.90625 582.371094 C 29.253906 568.542969 16.421875 534.722656 28.695312 505.378906 L 38.75 481.34375 C 46.894531 461.878906 44.183594 439.566406 31.617188 422.617188 L 16.101562 401.6875 C -2.84375 376.128906 1.515625 340.226562 26.03125 319.941406 L 46.105469 303.332031 C 62.367188 289.878906 70.339844 268.867188 67.09375 248.019531 L 63.082031 222.277344 C 58.191406 190.847656 78.746094 161.082031 109.878906 154.507812 L 135.375 149.132812 C 156.023438 144.769531 172.855469 129.863281 179.671875 109.898438 L 188.089844 85.242188 C 198.367188 55.136719 230.402344 38.332031 261.027344 46.976562 L 286.109375 54.058594 C 306.417969 59.792969 328.25 54.414062 343.566406 39.898438 L 362.484375 21.980469 C 385.578125 0.101562 421.761719 0.101562 444.855469 21.980469 " fill-opacity="1" fill-rule="nonzero"/><path fill="#ffffff" d="M 225.253906 690.777344 C 244.136719 690.777344 262.011719 700.488281 272.246094 716.433594 L 285.011719 736.320312 C 300.167969 759.925781 331.148438 767.558594 355.542969 753.695312 L 376.089844 742.019531 C 393.101562 732.351562 414.238281 732.351562 431.25 742.019531 L 451.796875 753.695312 C 476.191406 767.558594 507.171875 759.925781 522.328125 736.320312 L 535.09375 716.433594 C 545.660156 699.96875 564.359375 690.15625 583.933594 690.8125 L 607.554688 691.605469 C 635.617188 692.554688 659.484375 671.390625 661.925781 643.449219 L 663.992188 619.910156 C 665.691406 600.425781 677.699219 583.039062 695.320312 574.535156 L 716.609375 564.261719 C 741.878906 552.070312 753.191406 522.246094 742.363281 496.363281 L 733.25 474.566406 C 725.695312 456.523438 728.246094 435.546875 739.898438 419.832031 L 753.96875 400.847656 C 770.675781 378.308594 766.832031 346.648438 745.210938 328.761719 L 727.007812 313.699219 C 711.933594 301.226562 704.4375 281.46875 707.441406 262.144531 L 711.078125 238.796875 C 715.394531 211.078125 697.269531 184.832031 669.816406 179.035156 L 646.6875 174.152344 C 627.539062 170.117188 611.726562 156.101562 605.402344 137.589844 L 597.769531 115.230469 C 588.707031 88.683594 560.460938 73.863281 533.449219 81.484375 L 510.699219 87.90625 C 491.867188 93.226562 471.347656 88.164062 457.148438 74.710938 L 439.992188 58.457031 C 419.625 39.160156 387.714844 39.160156 367.347656 58.457031 L 350.191406 74.710938 C 335.992188 88.164062 315.472656 93.21875 296.640625 87.90625 L 273.890625 81.484375 C 246.882812 73.855469 218.632812 88.683594 209.570312 115.230469 L 201.933594 137.589844 C 195.617188 156.101562 179.796875 170.117188 160.648438 174.152344 L 137.523438 179.035156 C 110.066406 184.832031 91.945312 211.078125 96.257812 238.796875 L 99.894531 262.144531 C 102.90625 281.46875 95.40625 301.226562 80.335938 313.699219 L 62.125 328.761719 C 40.507812 346.648438 36.664062 378.308594 53.371094 400.847656 L 67.445312 419.832031 C 79.09375 435.546875 81.640625 456.523438 74.09375 474.566406 L 64.972656 496.363281 C 54.148438 522.246094 65.460938 552.070312 90.734375 564.261719 L 112.015625 574.535156 C 129.640625 583.039062 141.644531 600.425781 143.351562 619.910156 L 145.410156 643.449219 C 147.855469 671.390625 171.691406 692.546875 199.785156 691.605469 L 223.40625 690.8125 C 224.023438 690.789062 224.640625 690.777344 225.253906 690.777344 Z M 329.496094 763.601562 C 311.070312 763.601562 293.101562 754.484375 282.480469 737.941406 L 269.71875 718.054688 C 259.71875 702.476562 242.007812 693.179688 223.507812 693.808594 L 199.886719 694.601562 C 199.25 694.625 198.609375 694.636719 197.980469 694.636719 C 169.167969 694.636719 144.945312 672.613281 142.414062 643.707031 L 140.359375 620.171875 C 138.742188 601.734375 127.386719 585.285156 110.710938 577.238281 L 89.425781 566.96875 C 62.71875 554.078125 50.757812 522.558594 62.203125 495.207031 L 71.320312 473.410156 C 78.460938 456.335938 76.054688 436.488281 65.03125 421.621094 L 50.957031 402.636719 C 33.300781 378.816406 37.363281 345.351562 60.210938 326.449219 L 78.417969 311.382812 C 92.679688 299.582031 99.773438 280.890625 96.925781 262.605469 L 93.289062 239.257812 C 88.730469 209.964844 107.882812 182.21875 136.902344 176.09375 L 160.03125 171.21875 C 178.144531 167.390625 193.113281 154.140625 199.09375 136.621094 L 206.726562 114.261719 C 216.308594 86.199219 246.171875 70.539062 274.707031 78.59375 L 297.453125 85.011719 C 315.269531 90.042969 334.6875 85.265625 348.125 72.53125 L 365.28125 56.273438 C 386.808594 35.882812 420.535156 35.882812 442.058594 56.273438 L 459.214844 72.53125 C 472.652344 85.257812 492.0625 90.046875 509.886719 85.011719 L 532.632812 78.59375 C 561.164062 70.539062 591.035156 86.199219 600.609375 114.261719 L 608.246094 136.621094 C 614.226562 154.140625 629.199219 167.390625 647.308594 171.21875 L 670.441406 176.09375 C 699.457031 182.21875 718.609375 209.964844 714.050781 239.257812 L 710.414062 262.605469 C 707.566406 280.890625 714.65625 299.582031 728.917969 311.382812 L 747.128906 326.449219 C 769.972656 345.351562 774.039062 378.816406 756.382812 402.636719 L 742.308594 421.621094 C 731.289062 436.488281 728.878906 456.335938 736.019531 473.410156 L 745.144531 495.207031 C 756.582031 522.558594 744.621094 554.078125 717.914062 566.96875 L 696.628906 577.238281 C 679.957031 585.285156 668.59375 601.734375 666.984375 620.171875 L 664.921875 643.707031 C 662.339844 673.246094 637.074219 695.585938 607.457031 694.601562 L 583.832031 693.808594 C 565.300781 693.175781 547.621094 702.476562 537.621094 718.054688 L 524.855469 737.941406 C 508.839844 762.886719 476.089844 770.957031 450.3125 756.304688 L 429.761719 744.628906 C 413.667969 735.480469 393.671875 735.484375 377.578125 744.628906 L 357.027344 756.304688 C 348.339844 761.246094 338.855469 763.601562 329.496094 763.601562 " fill-opacity="1" fill-rule="nonzero"/><g fill="#ffffff" fill-opacity="1"><g transform="translate(284.450089, 236.839497)"><g><path d="M 23.6875 0.5625 C 28.3125 0.5625 38.824219 0.5625 43.589844 0 C 45.691406 -0.28125 47.511719 -1.820312 47.234375 -4.765625 C 46.53125 -12.195312 45.410156 -24.105469 45.410156 -31.675781 C 45.269531 -41.90625 47.09375 -47.511719 49.335938 -47.511719 C 52.417969 -47.511719 54.101562 -42.046875 55.921875 -33.917969 C 56.902344 -29.714844 57.746094 -25.226562 58.585938 -21.023438 C 60.265625 -14.296875 63.210938 -10.511719 68.394531 -10.511719 C 73.722656 -10.511719 76.945312 -13.59375 78.628906 -21.023438 C 79.1875 -25.085938 80.027344 -28.730469 80.871094 -33.078125 C 82.972656 -41.90625 84.515625 -48.214844 87.738281 -48.214844 C 90.121094 -48.214844 91.800781 -42.746094 91.800781 -32.515625 C 91.800781 -24.667969 90.820312 -12.472656 89.839844 -4.765625 C 89.558594 -1.820312 91.382812 -0.28125 93.625 0 C 98.390625 0.5625 109.042969 0.5625 113.667969 0.5625 C 118.152344 0.5625 126.839844 0.5625 131.464844 0 C 133.847656 -0.28125 135.671875 -2.101562 135.53125 -4.484375 C 134.691406 -38.824219 129.925781 -74.003906 126.699219 -94.605469 C 126.28125 -96.707031 124.597656 -97.96875 122.496094 -98.109375 C 116.890625 -98.53125 108.339844 -98.667969 103.433594 -98.667969 C 98.949219 -98.667969 90.402344 -98.667969 85.773438 -98.109375 C 82.550781 -97.6875 80.308594 -95.726562 79.46875 -92.082031 C 78.488281 -88.019531 76.945312 -79.75 75.125 -72.320312 C 73.582031 -65.453125 71.199219 -60.546875 68.675781 -60.546875 C 65.875 -60.546875 63.492188 -65.3125 61.527344 -73.441406 C 60.125 -79.609375 58.445312 -88.296875 57.746094 -92.082031 C 56.902344 -95.726562 54.660156 -97.6875 51.296875 -98.109375 C 46.671875 -98.667969 38.402344 -98.667969 33.777344 -98.667969 C 29.011719 -98.667969 19.480469 -98.53125 14.578125 -98.109375 C 12.613281 -97.96875 10.792969 -96.707031 10.511719 -94.605469 C 7.289062 -74.003906 2.382812 -38.824219 1.542969 -4.484375 C 1.542969 -2.101562 3.363281 -0.28125 5.746094 0 C 10.371094 0.5625 19.203125 0.5625 23.6875 0.5625 Z M 23.6875 0.5625 "/></g></g></g><g fill="#ffffff" fill-opacity="1"><g transform="translate(421.522615, 236.839497)"><g><path d="M 44.289062 33.355469 C 74.421875 33.355469 99.089844 19.203125 99.089844 -6.308594 C 99.089844 -23.828125 98.390625 -46.953125 96.007812 -72.179688 C 95.726562 -74.140625 94.324219 -75.964844 91.941406 -76.246094 C 87.457031 -76.664062 81.148438 -76.804688 77.226562 -76.804688 C 72.742188 -76.804688 64.191406 -76.664062 59.425781 -76.246094 C 56.761719 -75.824219 55.363281 -74.140625 55.5 -71.761719 C 56.203125 -63.628906 56.902344 -52.558594 56.902344 -46.953125 C 56.902344 -40.644531 55.5 -32.515625 50.875 -32.515625 C 46.671875 -32.515625 44.851562 -39.804688 44.851562 -45.832031 C 44.851562 -52.558594 46.25 -61.949219 48.492188 -71.621094 C 49.054688 -74.003906 47.09375 -76.105469 44.570312 -76.246094 C 39.945312 -76.523438 31.113281 -76.804688 27.191406 -76.804688 C 22.984375 -76.804688 14.996094 -76.664062 10.511719 -76.246094 C 8.410156 -76.105469 7.148438 -74.5625 6.726562 -72.460938 C 4.765625 -63.351562 2.804688 -42.1875 2.382812 -31.675781 C 2.523438 -10.933594 12.894531 -1.542969 30.132812 -1.542969 C 41.765625 -1.542969 51.4375 -9.109375 54.378906 -23.265625 C 55.082031 -26.070312 57.464844 -26.070312 57.464844 -23.125 L 57.464844 -17.519531 C 57.464844 -6.027344 44.148438 3.644531 32.09375 3.644531 C 22.84375 3.644531 13.316406 0.699219 6.867188 -2.664062 C 4.34375 -4.34375 1.960938 -2.242188 1.960938 0.699219 C 1.683594 8.269531 0.980469 20.183594 0.980469 25.789062 C 0.980469 27.332031 2.242188 29.292969 3.785156 29.714844 C 12.894531 31.957031 34.199219 33.355469 44.289062 33.355469 Z M 44.289062 33.355469 "/></g></g></g><g fill="#ffffff" fill-opacity="1"><g transform="translate(195.497048, 430.387964)"><g><path d="M 49.335938 1.121094 C 80.449219 1.121094 97.96875 -9.109375 98.109375 -28.453125 C 98.25 -59.707031 48.632812 -53.117188 48.632812 -63.769531 C 48.632812 -67.273438 54.101562 -69.515625 63.351562 -69.378906 C 70.636719 -69.097656 79.890625 -66.714844 86.898438 -62.789062 C 89.558594 -60.40625 93.34375 -61.109375 92.921875 -66.152344 C 92.503906 -73.582031 91.382812 -84.375 90.679688 -91.800781 C 90.402344 -93.625 89.277344 -94.886719 87.457031 -95.445312 C 76.664062 -98.109375 61.109375 -99.230469 49.476562 -99.230469 C 20.882812 -99.230469 6.167969 -91.101562 6.167969 -72.039062 C 6.167969 -44.851562 49.335938 -48.492188 49.195312 -38.121094 C 49.054688 -34.757812 46.671875 -31.535156 38.402344 -31.535156 C 28.453125 -31.535156 17.660156 -34.617188 8.96875 -41.347656 C 6.308594 -44.007812 1.960938 -43.027344 2.101562 -38.683594 C 2.242188 -28.871094 2.804688 -17.941406 3.082031 -8.550781 C 3.222656 -6.726562 4.484375 -5.046875 6.027344 -4.484375 C 18.5 -0.980469 38.261719 1.121094 49.335938 1.121094 Z M 49.335938 1.121094 "/></g></g></g><g fill="#ffffff" fill-opacity="1"><g transform="translate(295.147963, 430.387964)"><g><path d="M 22.707031 1.121094 C 32.9375 1.121094 41.484375 -3.785156 46.390625 -17.800781 C 47.371094 -20.742188 49.476562 -20.183594 49.195312 -17.238281 C 48.914062 -14.4375 48.492188 -8.96875 47.933594 -6.027344 C 47.234375 -2.523438 49.753906 -0.421875 53.820312 0 C 58.726562 0.5625 65.171875 0.5625 69.796875 0.5625 C 74.28125 0.5625 81.851562 0.421875 86.195312 0 C 88.296875 -0.28125 89.699219 -1.820312 89.699219 -4.203125 C 89.277344 -19.203125 87.738281 -38.402344 86.195312 -50.597656 C 84.652344 -64.332031 76.386719 -77.367188 44.289062 -77.367188 C 25.226562 -77.367188 13.035156 -74.703125 8.828125 -73.160156 C 7.148438 -72.460938 6.308594 -70.636719 6.167969 -68.535156 C 5.886719 -61.25 5.605469 -53.960938 5.886719 -46.671875 C 6.167969 -43.027344 8.691406 -41.484375 11.210938 -43.730469 C 19.902344 -48.914062 32.375 -52.558594 38.964844 -52.558594 C 45.972656 -52.558594 48.492188 -50.457031 48.492188 -47.792969 C 48.492188 -44.851562 44.289062 -44.007812 39.101562 -43.449219 C 19.621094 -41.765625 1.261719 -34.476562 1.261719 -19.621094 C 1.261719 -5.605469 8.410156 1.121094 22.707031 1.121094 Z M 43.730469 -26.210938 C 41.207031 -26.210938 40.085938 -27.609375 40.085938 -30.835938 C 40.085938 -35.039062 43.167969 -38.121094 45.972656 -38.121094 C 47.792969 -38.121094 49.054688 -36.160156 49.054688 -33.777344 C 49.054688 -29.152344 45.550781 -26.210938 43.730469 -26.210938 Z M 43.730469 -26.210938 "/></g></g></g><g fill="#ffffff" fill-opacity="1"><g transform="translate(386.669828, 430.387964)"><g><path d="M 25.507812 0.5625 C 30.273438 0.5625 38.261719 0.421875 42.746094 0 C 44.988281 -0.28125 46.671875 -1.960938 46.671875 -4.34375 C 45.832031 -35.597656 45.691406 -66.855469 48.492188 -95.027344 C 48.773438 -97.410156 46.953125 -99.371094 44.429688 -99.652344 C 39.101562 -100.070312 29.992188 -100.070312 25.929688 -100.070312 C 21.722656 -100.070312 14.4375 -99.929688 10.089844 -99.511719 C 7.988281 -99.230469 6.167969 -97.828125 6.027344 -95.726562 C 4.625 -74.84375 2.382812 -36.722656 2.242188 -4.34375 C 2.242188 -2.101562 4.066406 -0.28125 6.308594 0 C 11.632812 0.421875 20.601562 0.5625 25.507812 0.5625 Z M 25.507812 0.5625 "/></g></g></g><g fill="#ffffff" fill-opacity="1"><g transform="translate(437.406307, 430.387964)"><g><path d="M 48.492188 1.121094 C 60.546875 1.121094 75.402344 -0.140625 83.671875 -4.90625 C 85.355469 -6.027344 86.335938 -7.570312 86.054688 -10.089844 C 85.773438 -15.417969 84.792969 -24.949219 84.09375 -30.132812 C 83.53125 -34.339844 80.449219 -35.597656 78.207031 -33.078125 C 70.359375 -26.210938 63.910156 -24.105469 52.839844 -24.105469 C 44.710938 -24.105469 35.597656 -27.46875 32.796875 -33.777344 C 31.253906 -36.300781 32.9375 -37.5625 34.898438 -35.878906 C 40.503906 -31.957031 46.53125 -29.992188 52.839844 -29.992188 C 67.976562 -29.992188 82.269531 -38.683594 82.269531 -50.457031 C 82.269531 -68.675781 68.257812 -77.367188 44.988281 -77.367188 C 18.78125 -77.367188 1.261719 -63.492188 1.261719 -39.101562 C 1.261719 -13.175781 19.339844 1.121094 48.492188 1.121094 Z M 43.449219 -41.207031 C 39.945312 -41.207031 35.320312 -43.027344 35.320312 -46.671875 C 35.320312 -50.035156 38.542969 -52.980469 42.46875 -52.980469 C 47.09375 -52.980469 48.914062 -50.457031 48.914062 -46.671875 C 48.914062 -43.167969 46.53125 -41.207031 43.449219 -41.207031 Z M 43.449219 -41.207031 "/></g></g></g><g fill="#ffffff" fill-opacity="1"><g transform="translate(525.003777, 430.387964)"><g><path d="M 43.027344 1.121094 C 69.9375 1.121094 85.214844 -7.289062 85.214844 -22.285156 C 85.214844 -48.632812 44.710938 -41.207031 44.710938 -48.914062 C 44.710938 -51.71875 48.074219 -53.257812 56.621094 -53.117188 C 62.789062 -52.980469 69.796875 -51.15625 75.125 -48.632812 C 77.644531 -46.8125 80.449219 -48.355469 80.308594 -51.15625 C 79.890625 -57.183594 79.1875 -65.453125 78.628906 -71.339844 C 78.488281 -72.882812 77.367188 -74.003906 75.964844 -74.421875 C 66.433594 -76.386719 52.558594 -77.367188 42.46875 -77.367188 C 17.800781 -77.367188 5.046875 -70.917969 5.046875 -55.921875 C 5.046875 -30.414062 40.503906 -37.28125 40.503906 -29.992188 C 40.503906 -27.191406 37.703125 -25.367188 31.113281 -25.367188 C 24.105469 -25.367188 15.699219 -27.46875 7.429688 -32.375 C 5.046875 -34.199219 1.683594 -33.496094 1.542969 -30.273438 C 1.402344 -22.425781 1.402344 -14.714844 1.683594 -6.867188 C 1.820312 -5.324219 2.664062 -4.203125 4.34375 -3.644531 C 15.277344 -0.839844 30.554688 1.121094 43.027344 1.121094 Z M 43.027344 1.121094 "/></g></g></g><g fill="#ffffff" fill-opacity="1"><g transform="translate(162.074482, 623.936431)"><g><path d="M 59.144531 1.121094 C 75.261719 1.121094 92.78125 -2.523438 101.191406 -5.324219 C 102.734375 -6.027344 103.855469 -7.429688 103.855469 -9.53125 C 103.292969 -20.460938 102.875 -31.535156 102.171875 -42.605469 C 101.894531 -46.953125 98.53125 -47.511719 96.566406 -45.550781 C 85.636719 -37.140625 76.386719 -34.476562 65.171875 -34.476562 C 52.558594 -34.476562 45.550781 -39.664062 45.550781 -47.792969 C 45.550781 -60.40625 51.015625 -66.714844 63.210938 -66.714844 C 70.917969 -66.714844 77.785156 -64.332031 84.234375 -59.847656 C 86.757812 -57.882812 89.277344 -58.585938 89.699219 -61.949219 C 90.820312 -69.796875 92.082031 -80.449219 93.203125 -88.296875 C 93.625 -90.261719 93.0625 -92.222656 91.101562 -93.34375 C 82.832031 -97.410156 74.003906 -99.230469 60.125 -99.230469 C 24.949219 -99.230469 1.261719 -77.785156 1.261719 -44.988281 C 1.261719 -10.371094 24.949219 1.121094 59.144531 1.121094 Z M 59.144531 1.121094 "/></g></g></g><g fill="#ffffff" fill-opacity="1"><g transform="translate(268.032407, 623.936431)"><g><path d="M 46.671875 1.121094 C 73.300781 1.121094 91.941406 -7.847656 91.941406 -35.320312 C 91.941406 -60.828125 73.300781 -77.367188 46.671875 -77.367188 C 20.042969 -77.367188 1.261719 -60.828125 1.261719 -35.320312 C 1.261719 -7.847656 20.042969 1.121094 46.671875 1.121094 Z M 46.671875 -27.46875 C 41.765625 -27.46875 38.542969 -31.816406 38.542969 -37.84375 C 38.542969 -43.867188 41.765625 -49.054688 46.671875 -49.054688 C 51.4375 -49.054688 54.660156 -43.867188 54.660156 -37.84375 C 54.660156 -31.816406 51.4375 -27.46875 46.671875 -27.46875 Z M 46.671875 -27.46875 "/></g></g></g><g fill="#ffffff" fill-opacity="1"><g transform="translate(361.236131, 623.936431)"><g><path d="M 22.707031 1.121094 C 32.9375 1.121094 41.484375 -3.785156 46.390625 -17.800781 C 47.371094 -20.742188 49.476562 -20.183594 49.195312 -17.238281 C 48.914062 -14.4375 48.492188 -8.96875 47.933594 -6.027344 C 47.234375 -2.523438 49.753906 -0.421875 53.820312 0 C 58.726562 0.5625 65.171875 0.5625 69.796875 0.5625 C 74.28125 0.5625 81.851562 0.421875 86.195312 0 C 88.296875 -0.28125 89.699219 -1.820312 89.699219 -4.203125 C 89.277344 -19.203125 87.738281 -38.402344 86.195312 -50.597656 C 84.652344 -64.332031 76.386719 -77.367188 44.289062 -77.367188 C 25.226562 -77.367188 13.035156 -74.703125 8.828125 -73.160156 C 7.148438 -72.460938 6.308594 -70.636719 6.167969 -68.535156 C 5.886719 -61.25 5.605469 -53.960938 5.886719 -46.671875 C 6.167969 -43.027344 8.691406 -41.484375 11.210938 -43.730469 C 19.902344 -48.914062 32.375 -52.558594 38.964844 -52.558594 C 45.972656 -52.558594 48.492188 -50.457031 48.492188 -47.792969 C 48.492188 -44.851562 44.289062 -44.007812 39.101562 -43.449219 C 19.621094 -41.765625 1.261719 -34.476562 1.261719 -19.621094 C 1.261719 -5.605469 8.410156 1.121094 22.707031 1.121094 Z M 43.730469 -26.210938 C 41.207031 -26.210938 40.085938 -27.609375 40.085938 -30.835938 C 40.085938 -35.039062 43.167969 -38.121094 45.972656 -38.121094 C 47.792969 -38.121094 49.054688 -36.160156 49.054688 -33.777344 C 49.054688 -29.152344 45.550781 -26.210938 43.730469 -26.210938 Z M 43.730469 -26.210938 "/></g></g></g><g fill="#ffffff" fill-opacity="1"><g transform="translate(452.757997, 623.936431)"><g><path d="M 49.894531 1.121094 C 60.96875 1.121094 73.441406 -0.980469 82.832031 -3.925781 C 84.375 -4.484375 85.355469 -6.308594 85.355469 -8.128906 C 85.355469 -15.417969 84.792969 -26.488281 84.515625 -33.777344 C 84.375 -37.28125 81.011719 -38.261719 78.90625 -36.160156 C 69.515625 -29.992188 61.386719 -28.3125 54.101562 -28.3125 C 44.007812 -28.3125 38.824219 -31.113281 38.824219 -36.160156 C 38.824219 -44.289062 42.886719 -48.632812 52.558594 -48.632812 C 59.003906 -48.632812 66.292969 -46.53125 70.636719 -44.570312 C 72.601562 -42.605469 75.542969 -43.589844 75.964844 -46.8125 C 76.945312 -52.699219 77.925781 -62.089844 78.628906 -68.117188 C 78.90625 -69.9375 77.925781 -72.179688 76.386719 -73.019531 C 69.796875 -75.824219 62.089844 -77.367188 50.738281 -77.367188 C 21.304688 -77.367188 1.261719 -60.125 1.261719 -34.339844 C 1.261719 -7.289062 21.164062 1.121094 49.894531 1.121094 Z M 49.894531 1.121094 "/></g></g></g><g fill="#ffffff" fill-opacity="1"><g transform="translate(539.654715, 623.936431)"><g><path d="M 25.507812 0.5625 C 30.132812 0.5625 37.980469 0.421875 42.46875 0 C 44.710938 -0.28125 46.53125 -1.960938 46.390625 -4.34375 C 45.972656 -12.472656 45.410156 -21.585938 45.410156 -28.871094 C 45.410156 -35.460938 48.214844 -41.347656 53.539062 -41.347656 C 58.726562 -41.347656 61.667969 -35.597656 61.667969 -28.871094 C 61.667969 -22.285156 60.6875 -13.453125 59.847656 -4.484375 C 59.566406 -2.101562 61.527344 -0.28125 63.769531 0 C 69.9375 0.421875 76.105469 0.5625 81.851562 0.5625 C 87.597656 0.5625 93.625 0.5625 99.511719 0.140625 C 101.613281 -0.140625 103.15625 -1.683594 103.15625 -3.785156 C 103.433594 -12.195312 103.015625 -32.09375 102.3125 -38.542969 C 100.070312 -61.527344 91.941406 -77.226562 73.582031 -77.226562 C 61.808594 -77.226562 51.859375 -68.675781 47.933594 -52.558594 C 47.511719 -50.175781 44.851562 -50.457031 44.988281 -53.257812 C 45.269531 -64.191406 47.652344 -81.429688 49.894531 -95.027344 C 50.457031 -97.410156 48.355469 -99.371094 45.972656 -99.652344 C 40.644531 -99.929688 31.394531 -100.070312 27.332031 -100.070312 C 23.125 -100.070312 14.4375 -99.929688 10.089844 -99.511719 C 7.847656 -99.230469 6.167969 -97.828125 6.027344 -95.726562 C 4.484375 -74.84375 2.382812 -36.722656 2.242188 -4.34375 C 2.242188 -2.101562 4.066406 -0.28125 6.308594 0 C 11.632812 0.421875 20.601562 0.5625 25.507812 0.5625 Z M 25.507812 0.5625 "/></g></g></g></svg>